# xmcd
# Track frame offsets:
# 150
# 15993
# 45880
# 69206
# 104519
# 124879
# 175602
#
# Disc length: 2905 seconds
# Revision: 0
# Processed by: cddbd v1.5.2PL0 Copyright (c) Steve Scherf et al.
# Submitted via: VisiTrax 2.11.1.266 - For more info visit www.synapsa.com
#
DISCID=490b5707
DTITLE=Mike Nesmith - The Prison
DYEAR=2009
DGENRE=Country
TTITLE0=Opening Theme (Life,The Unsuspecting Captive)
TTITLE1=Dance Between The Raindrops
TTITLE2=Elusive Ragings
TTITLE3=Waking Mystery
TTITLE4=Hear Me,Calling
TTITLE5=Marie's Theme
TTITLE6=Closing Theme (Lamp Post)
EXTD=Subbed by http://www.songofthesalesman.co.uk/
EXTT0=
EXTT1=
EXTT2=
EXTT3=
EXTT4=
EXTT5=
EXTT6=
PLAYORDER=
